# xmcd
#
# Track frame offsets: 
#        150
#        30184
#        119581
#        161457
#        169847
#        209001
#        235080
#        250939
#        287955
#        299153
#
# Disc length: 4332 seconds
#
# Revision: 0
# Processed by: cddbd v1.5.2PL0 Copyright (c) Steve Scherf et al.
# Submitted via: ExactAudioCopy v0.95b4
#
DISCID=9710ea0a
DTITLE=Jimi Hendrix - Blues Outtakes [CD2]
DYEAR=2004
DGENRE=Blues
TTITLE0=Jelly
TTITLE1=Voodoo Chile Blues
TTITLE2=Strato Strut
TTITLE3=Country Blues - Astro Man
TTITLE4=Things I Used To Do
TTITLE5=Dleeding Heart
TTITLE6=Hear My Train A Comin'
TTITLE7=Belly Button Window
TTITLE8=It's Too Bad
TTITLE9=Villanova Junction Jam
EXTD=
EXTT0=
EXTT1=
EXTT2=
EXTT3=
EXTT4=
EXTT5=
EXTT6=
EXTT7=
EXTT8=
EXTT9=
PLAYORDER=
